<svg width="56" height="56" viewBox="0 0 56 56" fill="none" xmlns="http://www.w3.org/2000/svg">
<rect width="56" height="56" fill="#00E1D4"/>
<path d="M29.019 28.523C29.019 29.8923 28.7807 31.1577 28.304 32.319C27.836 33.4717 27.173 34.4727 26.315 35.322C25.457 36.1627 24.4213 36.8213 23.208 37.298C22.0033 37.766 20.6643 38 19.191 38H11.833V19.059H19.191C20.6643 19.059 22.0033 19.2973 23.208 19.774C24.4213 20.2507 25.457 20.9093 26.315 21.75C27.173 22.5907 27.836 23.5917 28.304 24.753C28.7807 25.9057 29.019 27.1623 29.019 28.523ZM24.521 28.523C24.521 27.587 24.3997 26.742 24.157 25.988C23.9143 25.234 23.5633 24.597 23.104 24.077C22.6533 23.5483 22.0987 23.1453 21.44 22.868C20.7813 22.582 20.0317 22.439 19.191 22.439H16.253V34.62H19.191C20.0317 34.62 20.7813 34.4813 21.44 34.204C22.0987 33.918 22.6533 33.515 23.104 32.995C23.5633 32.4663 23.9143 31.825 24.157 31.071C24.3997 30.317 24.521 29.4677 24.521 28.523ZM36.0323 22.439V27.236H42.5063V30.629H36.0323V38H31.6123V19.059H43.8063V22.439H36.0323Z" fill="white"/>
</svg>
